# xmcd
#
# Track frame offsets: 
#        150
#        23247
#        57884
#        92663
#        131871
#
# Disc length: 2242 seconds
#
# Revision: 1
# Processed by: cddbd v1.5.1PL2 Copyright (c) Steve Scherf et al.
# Submitted via: ExactAudioCopy v0.95b3
#
DISCID=3d08c005
DTITLE=Hank Mobley - Another Workout
DYEAR=1961
DGENRE=Jazz
TTITLE0=Out Of Joe's Bag
TTITLE1=I Should Care
TTITLE2=Gettin' And Jettin'
TTITLE3=Hank's Other Soul
TTITLE4=Hello Young Lovers
EXTD=YEAR: 1961
EXTT0=
EXTT1=
EXTT2=
EXTT3=
EXTT4=
PLAYORDER=
